<?xml version="1.0" standalone="no"?>
<svg xmlns="http://www.w3.org/2000/svg" viewBox="0 0 129 75" width="129" height="75"><g fill="#51be95" color="#51be95" transform="translate(42.465 0) scale(0.44) "><svg width="100.0" height="100.0" x="0.0" y="0.0" viewBox="0 0 100 100"><path d="M32.063,78.226c-2.024,0-3.661,1.64-3.661,3.664c0,2.021,1.636,3.66,3.661,3.66c2.023,0,3.66-1.64,3.66-3.66  C35.722,79.865,34.086,78.226,32.063,78.226"></path><path d="M23.109,79.005c-1.593,0-2.881,1.292-2.881,2.881c0,1.593,1.289,2.882,2.881,2.882c1.589,0,2.877-1.289,2.877-2.882  C25.986,80.297,24.698,79.005,23.109,79.005"></path><path d="M67.938,85.55c2.024,0,3.665-1.64,3.665-3.664c0-2.021-1.641-3.66-3.665-3.66c-2.02,0-3.66,1.64-3.66,3.66  C64.277,83.91,65.918,85.55,67.938,85.55"></path><path d="M76.896,84.768c1.589,0,2.881-1.289,2.881-2.878c0-1.593-1.292-2.885-2.881-2.885c-1.594,0-2.881,1.292-2.881,2.885  C74.015,83.479,75.302,84.768,76.896,84.768"></path><path d="M96.306,16.556c-0.682-2.45-2.797-4.162-5.133-4.162c-0.208,0-0.411,0.03-0.614,0.058c-0.044-0.325-0.079-0.65-0.126-0.975  c-0.207-1.535-1.397-2.755-2.929-2.999c-1.3-0.207-2.606-0.403-3.906-0.591C77.987,3.952,64.826,0,50,0h-0.122h-0.109  C34.948,0,21.782,3.952,16.175,7.887c-1.308,0.188-2.618,0.386-3.911,0.591c-1.531,0.244-2.721,1.464-2.928,2.999  c-0.043,0.317-0.078,0.634-0.121,0.953c-0.129-0.01-0.255-0.036-0.388-0.036c-2.337,0-4.447,1.712-5.133,4.162  c-2.149,7.688-3.229,15.665-3.209,23.715c0.003,3.308,2.411,6.001,5.367,6.001h0.07c0.349-0.004,0.701-0.016,1.05-0.02  c-0.02,13.605,1.01,27.221,3.108,40.734c0.227,1.473,1.362,2.643,2.83,2.918c1.061,0.195,2.125,0.376,3.187,0.556v6.26  c0,1.813,1.468,3.28,3.281,3.28h5.743c1.809,0,3.281-1.467,3.281-3.28v-4.553c7.172,0.775,14.355,1.179,21.484,1.179  c7.204,0,14.461-0.411,21.716-1.203v4.577c0,1.813,1.468,3.28,3.28,3.28h5.738c1.813,0,3.282-1.467,3.282-3.28v-6.299  c0.986-0.169,1.972-0.333,2.956-0.517c1.468-0.275,2.602-1.445,2.829-2.918c2.1-13.514,3.129-27.129,3.108-40.738  c0.427,0.008,0.857,0.02,1.28,0.023h0.07c2.956,0,5.364-2.693,5.367-6.001C99.535,32.221,98.455,24.243,96.306,16.556 M12.82,11.95  c1.578-0.253,3.16-0.487,4.741-0.709c4.205-3.452,17.131-7.726,32.208-7.726h0.117H50c15.072,0,28.007,4.273,32.207,7.726  c1.582,0.222,3.164,0.456,4.745,0.709c0.071,0.524,0.129,1.053,0.2,1.579c-0.627,0.222-1.246,0.448-1.872,0.664  c-0.959,0.341-1.761,0.93-2.372,1.67c-9.595-3.709-20.902-5.859-33.022-5.859c-12.05,0-23.289,2.126-32.849,5.795  c-0.604-0.709-1.386-1.276-2.318-1.605c-0.701-0.242-1.394-0.495-2.09-0.744C12.695,12.95,12.75,12.451,12.82,11.95 M16.978,24.2  h66.043l0.415,2.606c-0.09,0.02-0.18,0.029-0.273,0.029H16.837c-0.093,0-0.184-0.01-0.274-0.029L16.978,24.2z M10.362,42.674  c-1.488,0.043-2.979,0.066-4.486,0.082H5.853C4.979,42.756,4,41.69,4,40.262c-0.016-7.726,1.018-15.385,3.081-22.76  c0.263-0.937,0.979-1.593,1.747-1.593c0.157,0,0.313,0.03,0.477,0.091c1.421,0.519,2.843,1.023,4.256,1.509  c0.959,0.341,1.496,1.397,1.217,2.404c-1.848,6.71-2.76,13.672-2.705,20.698C12.081,41.715,11.305,42.643,10.362,42.674   M86.217,86.446c-12.113,2.256-24.223,3.384-36.331,3.384c-12.112,0-24.221-1.128-36.333-3.384  c-0.795-5.132-1.429-10.263-1.918-15.396h6.636c1.667,0,3.762-1.064,4.419-2.624c1.472-3.495-1.312-8.632-2.888-11.627  c-2.071-3.926-4.452-7.705-6.28-11.753c1.061-0.855,1.793-2.122,2-3.578c6.91,15.915,20.984,29.582,34.615,29.582  c16.474,0,33.166-7.066,38.733-9.653C88.393,69.746,87.512,78.097,86.217,86.446 M94.147,42.756h-0.019  c-1.512-0.016-3.004-0.039-4.492-0.082c-0.942-0.031-1.714-0.959-1.709-2.063c0.055-7.026-0.858-13.988-2.706-20.698  c-0.274-1.007,0.259-2.063,1.218-2.404c1.413-0.485,2.838-0.99,4.26-1.509c0.16-0.061,0.316-0.091,0.474-0.091  c0.768,0,1.488,0.656,1.746,1.593c2.063,7.375,3.101,15.034,3.08,22.76C95.999,41.69,95.021,42.756,94.147,42.756"></path></svg></g><path fill="#00070c" fill-rule="nonzero" d="M3.11 8.44L3.11 18.39Q2.54 18.32 0.94 18.32L0.94 18.32L0 18.32L0 2.68Q0.75 2.73 1.65 2.73Q2.55 2.73 2.93 2.64L2.93 2.64L6.87 9.33L10.65 2.64Q11.03 2.73 12.08 2.73Q13.14 2.73 13.89 2.68L13.89 2.68L13.89 18.32L12.95 18.32Q11.34 18.32 10.78 18.39L10.78 18.39L10.78 7.89L6.95 14.74L3.11 8.44ZM25.02 18.32L25.02 17.25Q23.52 18.49 21.75 18.49L21.75 18.49Q19.85 18.49 18.77 17.21L18.77 17.21Q17.74 15.97 17.74 13.80L17.74 13.80L17.74 9.15Q17.74 6.81 17.64 6.46Q17.54 6.12 17.50 6.02L17.50 6.02Q18.04 6.07 18.62 6.07L18.62 6.07L19.59 6.07Q19.98 6.07 20.61 6.04L20.61 6.04L20.61 12.82Q20.61 15.23 21.93 15.62L21.93 15.62Q22.32 15.74 22.79 15.74L22.79 15.74Q24.18 15.74 25.02 14.73L25.02 14.73L25.02 6.07L27.93 6.07L27.93 16.82Q27.93 17.85 28.02 18.32L28.02 18.32L25.02 18.32ZM34.38 0.86L34.38 17.00Q34.38 18.01 34.43 18.32L34.43 18.32L31.45 18.32L31.45 0.86L34.38 0.86ZM43.11 15.74L43.11 15.74Q44.63 15.74 45.19 14.95L45.19 14.95L45.28 14.95L45.32 17.67Q44.74 18.25 43.18 18.43L43.18 18.43Q42.76 18.49 42.13 18.49Q41.51 18.49 40.78 18.26Q40.04 18.02 39.53 17.50L39.53 17.50Q38.46 16.41 38.46 14.09L38.46 14.09L38.46 8.77L36.69 8.77Q36.68 8.43 36.68 8.07L36.68 8.07L36.68 6.27Q36.68 6.07 36.69 6.07L36.69 6.07L38.46 6.07L38.46 2.73L41.33 2.73L41.33 6.07L44.55 6.07L44.55 8.77L41.33 8.77L41.33 13.55Q41.33 15.39 42.35 15.64L42.35 15.64Q42.68 15.74 43.11 15.74ZM49.96 4.48L47.32 2.58Q48.26 1.11 49.28 0L49.28 0L51.80 1.98Q51.29 2.60 50.86 3.20L50.86 3.20Q50.86 3.20 49.96 4.48L49.96 4.48ZM50.40 6.07L50.40 17.00Q50.40 18.01 50.45 18.32L50.45 18.32L47.47 18.32L47.47 6.07L50.40 6.07ZM60.34 12.46L55.52 12.46Q54.63 12.46 54.07 12.52L54.07 12.52L54.11 9.62Q54.38 9.69 55.65 9.69L55.65 9.69L60.21 9.69Q61.50 9.69 61.76 9.62L61.76 9.62L61.79 12.52Q61.23 12.46 60.34 12.46L60.34 12.46ZM72.60 18.33L72.57 18.36Q72.20 18.32 71.34 18.32L71.34 18.32L70.05 18.32Q69.74 18.32 69.48 18.34L69.48 18.34L69.47 18.32Q69.52 18.23 69.52 18.13Q69.52 18.02 69.50 17.91Q69.48 17.79 69.40 17.48Q69.32 17.18 69.14 16.61L69.14 16.61L68.65 15.04L64.29 2.68Q65.02 2.73 66.14 2.73Q67.27 2.73 67.58 2.64L67.58 2.64L71.11 13.29L74.20 2.68Q74.91 2.73 75.94 2.73L75.94 2.73Q77.34 2.73 77.58 2.64L77.58 2.64L73.30 15Q73.30 15 72.89 16.37L72.89 16.37Q72.55 17.54 72.55 17.89Q72.55 18.23 72.60 18.33L72.60 18.33ZM81.86 4.48L79.22 2.58Q80.16 1.11 81.18 0L81.18 0L83.70 1.98Q83.19 2.60 82.76 3.20L82.76 3.20Q82.76 3.20 81.86 4.48L81.86 4.48ZM82.30 6.07L82.30 17.00Q82.30 18.01 82.35 18.32L82.35 18.32L79.37 18.32L79.37 6.07L82.30 6.07ZM93.69 17.59L93.69 17.59Q92.03 18.49 90.68 18.49Q89.33 18.49 88.37 18.24Q87.41 17.99 86.74 17.50L86.74 17.50Q85.38 16.50 85.38 14.61L85.38 14.61Q85.38 12.93 87.05 11.80L87.05 11.80Q88.85 10.58 91.95 10.58L91.95 10.58L92.41 10.59Q92.55 10.61 92.73 10.61Q92.91 10.62 93.05 10.64L93.05 10.64Q92.95 8.77 91.43 8.45L91.43 8.45Q90.93 8.34 90.36 8.34Q89.79 8.34 89.24 8.44Q88.70 8.54 88.18 8.71L88.18 8.71Q87.05 9.07 86.55 9.54L86.55 9.54L86.52 9.52L86.17 6.93Q88.24 5.84 90.70 5.84L90.70 5.84Q94.52 5.84 95.59 8.59L95.59 8.59Q95.93 9.47 95.93 10.57L95.93 10.57L95.93 14.81Q95.93 16.17 96.89 16.66L96.89 16.66L94.77 18.61Q94.10 18.26 93.69 17.59ZM93.06 15.20L93.06 12.75Q92.74 12.69 92.40 12.69L92.40 12.69L91.93 12.69Q89.34 12.69 88.64 13.84L88.64 13.84Q88.43 14.18 88.43 14.55Q88.43 14.93 88.56 15.22Q88.70 15.50 89.02 15.69L89.02 15.69Q89.63 16.04 90.83 16.04Q92.03 16.04 93.07 15.47L93.07 15.47Q93.06 15.34 93.06 15.20L93.06 15.20ZM101.33 4.35L98.98 2.66Q99.74 1.44 100.72 0.36L100.72 0.36L102.96 2.13Q102.38 2.88 102.16 3.16L102.16 3.16L101.75 3.74Q101.55 4.01 101.33 4.35L101.33 4.35ZM97.68 20.13L97.68 20.13Q99.41 20.13 99.41 17.55L99.41 17.55L99.41 6.07L102.26 6.07L102.26 16.71Q102.26 21.63 99.46 22.54L99.46 22.54Q98.54 22.83 97.38 22.83L97.38 22.83L96.16 19.75L96.19 19.69Q96.86 20.13 97.68 20.13ZM105.01 12.29L105.01 12.29Q105.01 10.92 105.48 9.75Q105.95 8.58 106.80 7.70L106.80 7.70Q108.63 5.84 111.59 5.84L111.59 5.84Q114.08 5.84 115.59 7.49L115.59 7.49Q117.08 9.08 117.08 11.50L117.08 11.50Q117.08 12.42 116.94 12.76L116.94 12.76Q115.77 13.09 112.17 13.09L112.17 13.09L108.05 13.09Q108.35 14.34 109.46 15.04Q110.58 15.74 112.36 15.74L112.36 15.74Q114.22 15.74 115.56 15.07L115.56 15.07Q115.91 14.89 116.09 14.74L116.09 14.74Q116.06 15.23 116.03 15.75L116.03 15.75L115.90 17.58Q115.01 18.19 113.02 18.42L113.02 18.42Q112.43 18.49 111.89 18.49L111.89 18.49Q108.91 18.49 106.97 16.76L106.97 16.76Q105.01 15.01 105.01 12.29ZM113.96 10.82L113.96 10.82Q113.48 8.30 111.22 8.30L111.22 8.30Q109.44 8.30 108.52 9.83L108.52 9.83Q108.23 10.30 108.08 10.86L108.08 10.86Q108.36 10.88 108.77 10.89L108.77 10.89L109.64 10.89Q110.07 10.90 110.47 10.90L110.47 10.90L111.14 10.90Q111.74 10.90 112.31 10.89L112.31 10.89L113.27 10.85Q113.66 10.84 113.96 10.82ZM123.75 18.49L123.75 18.49Q120.45 18.49 118.77 17.29L118.77 17.29Q118.79 16.93 118.84 16.49L118.84 16.49L118.95 15.64Q119.04 14.81 119.06 14.61Q119.09 14.40 119.10 14.38Q119.11 14.37 119.29 14.57Q119.46 14.78 119.95 15.07Q120.45 15.36 121.09 15.59L121.09 15.59Q122.48 16.07 124.00 16.07L124.00 16.07Q126.02 16.07 126.02 14.72L126.02 14.72Q126.02 14.29 125.64 14.07L125.64 14.07Q124.95 13.72 123.60 13.54Q122.26 13.36 121.41 13.01Q120.55 12.66 120.01 12.16L120.01 12.16Q119.02 11.24 119.02 9.74L119.02 9.74Q119.02 7.91 120.42 6.87L120.42 6.87Q121.82 5.84 124.28 5.84L124.28 5.84Q126.71 5.84 128.44 7.22L128.44 7.22Q128.36 7.52 128.26 7.80L128.26 7.80Q127.99 8.58 127.86 8.92L127.86 8.92L127.59 9.61Q127.57 9.70 127.56 9.70L127.56 9.70Q127.54 9.70 127.37 9.46L127.37 9.46Q126.63 8.60 125.07 8.33L125.07 8.33Q124.59 8.24 124.09 8.24L124.09 8.24Q121.96 8.24 121.96 9.53L121.96 9.53Q121.96 9.97 122.40 10.21L122.40 10.21Q123.23 10.65 124.68 10.86Q126.13 11.07 126.88 11.43Q127.63 11.79 128.09 12.29L128.09 12.29Q128.93 13.21 128.93 14.72L128.93 14.72Q128.93 16.37 127.61 17.40L127.61 17.40Q126.22 18.49 123.75 18.49Z" transform="translate(0, 52)"></path></svg>